<svg width="846" height="173" viewBox="0 0 846 173" fill="none" xmlns="http://www.w3.org/2000/svg">
<rect width="846" height="173" fill="#353535"/>
<rect width="73" height="173" fill="#FE4918"/>
<path d="M162.18 144H128.196C123.492 144 120.324 143.664 118.692 142.992C117.06 142.32 116.244 141.216 116.244 139.68V48.816C116.244 46.32 117.3 44.544 119.412 43.488C121.524 42.336 125.172 41.76 130.356 41.76H162.756C181.188 41.76 193.908 45.408 200.916 52.704C207.924 59.904 211.428 73.056 211.428 92.16C211.428 111.264 207.78 124.704 200.484 132.48C193.188 140.16 180.42 144 162.18 144ZM161.028 63.216C158.724 63.216 157.188 63.408 156.42 63.792V121.968L161.892 122.544C164.772 122.544 166.932 120.24 168.372 115.632C169.908 111.024 170.676 103.056 170.676 91.728C170.676 80.4 169.908 72.816 168.372 68.976C166.836 65.136 164.388 63.216 161.028 63.216ZM294.581 144H233.525C228.821 144 225.653 143.664 224.021 142.992C222.389 142.32 221.573 141.264 221.573 139.824V48.672C221.573 46.176 222.677 44.4 224.885 43.344C227.189 42.288 231.269 41.76 237.125 41.76H295.013C297.029 41.76 298.037 45.12 298.037 51.84C298.037 58.464 297.605 63.552 296.741 67.104C295.877 70.56 294.725 72.288 293.285 72.288C287.045 72.288 276.533 71.664 261.749 70.416V80.064C275.957 79.488 285.221 79.2 289.541 79.2C292.133 79.2 293.429 82.224 293.429 88.272C293.429 94.32 292.901 98.928 291.844 102.096C290.885 105.168 289.541 106.704 287.812 106.704L261.749 106.128V115.344C278.453 114.096 289.973 113.472 296.309 113.472C298.325 113.472 299.333 116.832 299.333 123.552C299.333 130.272 298.901 135.36 298.037 138.816C297.173 142.272 296.021 144 294.581 144ZM382.759 137.952C379.879 140.064 375.847 141.84 370.663 143.28C365.575 144.624 358.951 145.296 350.791 145.296C342.727 145.296 335.047 144.624 327.751 143.28C320.455 141.936 315.223 140.448 312.055 138.816C308.887 137.184 307.303 135.6 307.303 134.064C307.303 128.688 308.071 123.12 309.607 117.36C311.143 111.504 312.967 108.576 315.079 108.576C315.463 108.576 319.447 109.872 327.031 112.464C334.615 115.056 340.327 116.352 344.167 116.352C348.007 116.352 350.503 115.968 351.655 115.2C352.807 114.336 353.383 113.136 353.383 111.6C353.383 110.064 352.327 108.72 350.215 107.568C348.103 106.32 345.463 105.264 342.295 104.4C339.127 103.44 335.671 102.096 331.927 100.368C328.279 98.64 324.871 96.72 321.703 94.608C318.535 92.496 315.895 89.52 313.783 85.68C311.671 81.744 310.615 77.28 310.615 72.288C310.615 50.976 323.335 40.32 348.775 40.32C358.279 40.32 366.487 40.944 373.399 42.192C380.311 43.344 385.159 44.688 387.943 46.224C390.823 47.664 392.263 49.104 392.263 50.544C392.263 55.536 391.063 60.912 388.663 66.672C386.359 72.432 384.103 75.312 381.895 75.312C381.511 75.312 380.263 74.88 378.151 74.016C371.815 71.232 366.535 69.84 362.311 69.84C358.183 69.84 355.351 70.224 353.815 70.992C352.375 71.76 351.655 72.96 351.655 74.592C351.655 76.128 352.711 77.424 354.823 78.48C356.935 79.44 359.527 80.352 362.599 81.216C365.767 81.984 369.175 83.232 372.823 84.96C376.567 86.592 380.023 88.56 383.191 90.864C386.359 93.072 388.999 96.24 391.111 100.368C393.223 104.496 394.279 109.296 394.279 114.768C394.279 120.528 392.791 125.76 389.815 130.464C387.991 133.344 385.639 135.84 382.759 137.952ZM476.978 137.952C474.098 140.064 470.066 141.84 464.882 143.28C459.794 144.624 453.17 145.296 445.01 145.296C436.946 145.296 429.266 144.624 421.97 143.28C414.674 141.936 409.442 140.448 406.274 138.816C403.106 137.184 401.522 135.6 401.522 134.064C401.522 128.688 402.29 123.12 403.826 117.36C405.362 111.504 407.186 108.576 409.298 108.576C409.682 108.576 413.666 109.872 421.25 112.464C428.834 115.056 434.546 116.352 438.386 116.352C442.226 116.352 444.722 115.968 445.874 115.2C447.026 114.336 447.602 113.136 447.602 111.6C447.602 110.064 446.546 108.72 444.434 107.568C442.322 106.32 439.682 105.264 436.514 104.4C433.346 103.44 429.89 102.096 426.146 100.368C422.498 98.64 419.09 96.72 415.922 94.608C412.754 92.496 410.114 89.52 408.002 85.68C405.89 81.744 404.834 77.28 404.834 72.288C404.834 50.976 417.554 40.32 442.994 40.32C452.498 40.32 460.706 40.944 467.618 42.192C474.53 43.344 479.378 44.688 482.162 46.224C485.042 47.664 486.482 49.104 486.482 50.544C486.482 55.536 485.282 60.912 482.882 66.672C480.578 72.432 478.322 75.312 476.114 75.312C475.73 75.312 474.482 74.88 472.37 74.016C466.034 71.232 460.754 69.84 456.53 69.84C452.402 69.84 449.57 70.224 448.034 70.992C446.594 71.76 445.874 72.96 445.874 74.592C445.874 76.128 446.93 77.424 449.042 78.48C451.154 79.44 453.746 80.352 456.818 81.216C459.986 81.984 463.394 83.232 467.042 84.96C470.786 86.592 474.242 88.56 477.41 90.864C480.578 93.072 483.218 96.24 485.33 100.368C487.442 104.496 488.498 109.296 488.498 114.768C488.498 120.528 487.01 125.76 484.034 130.464C482.21 133.344 479.858 135.84 476.978 137.952ZM537.933 139.824C537.933 141.072 535.005 142.08 529.149 142.848C523.293 143.616 517.437 144 511.581 144C505.725 144 501.981 143.664 500.349 142.992C498.717 142.32 497.901 141.264 497.901 139.824V47.232C497.901 42.624 511.725 40.32 539.373 40.32C556.077 40.32 567.117 41.472 572.493 43.776C579.021 46.464 583.437 50.112 585.741 54.72C588.813 60.672 590.349 68.304 590.349 77.616C590.349 90.384 588.141 99.648 583.725 105.408C580.557 109.632 577.389 112.368 574.221 113.616C571.053 114.864 568.413 115.776 566.301 116.352C564.285 116.832 561.741 117.216 558.669 117.504C554.445 117.888 548.685 118.08 541.389 118.08L537.933 117.936V139.824ZM538.077 94.032H541.533C543.357 94.032 544.797 93.792 545.853 93.312C546.909 92.736 547.821 91.296 548.589 88.992C549.453 86.592 549.885 83.28 549.885 79.056C549.885 74.736 549.405 71.472 548.445 69.264C547.581 66.96 546.669 65.616 545.709 65.232C544.845 64.752 543.789 64.512 542.541 64.512H538.077V94.032ZM630.879 136.656C630.687 139.44 629.199 141.36 626.415 142.416C623.727 143.472 618.831 144 611.727 144C604.623 144 598.671 143.376 593.871 142.128C589.167 140.784 586.815 139.104 586.815 137.088C586.815 134.784 591.087 120.096 599.631 93.024C608.175 65.856 613.071 50.208 614.319 46.08C614.799 44.832 618.639 43.824 625.839 43.056C633.135 42.192 640.911 41.76 649.167 41.76C657.519 41.76 662.127 43.2 662.991 46.08C681.135 106.368 690.207 136.992 690.207 137.952C690.207 138.912 689.631 139.872 688.479 140.832C685.791 142.944 680.463 144 672.495 144C655.503 144 646.815 141.984 646.431 137.952L645.423 128.592H631.599L630.879 136.656ZM642.399 101.232L640.239 75.312H637.071L634.623 101.232H642.399ZM737.624 140.544C737.624 141.6 734.696 142.464 728.84 143.136C722.984 143.712 717.08 144 711.128 144C705.272 144 701.528 143.76 699.896 143.28C698.264 142.704 697.448 141.792 697.448 140.544V50.976C697.448 48.864 700.232 46.8 705.8 44.784C711.368 42.672 717.608 41.616 724.52 41.616C730.664 41.616 734.696 42.912 736.616 45.504C737.288 46.464 737.624 47.424 737.624 48.384V140.544ZM789.518 139.824C789.518 141.072 786.59 142.08 780.734 142.848C774.878 143.616 768.974 144 763.022 144C757.166 144 753.374 143.664 751.646 142.992C750.014 142.32 749.198 141.264 749.198 139.824V47.232C749.198 44.736 752.318 42.96 758.558 41.904C764.894 40.848 772.862 40.32 782.462 40.32C792.062 40.32 798.254 40.368 801.038 40.464C803.918 40.464 807.278 40.608 811.118 40.896C814.958 41.184 817.982 41.664 820.19 42.336C822.494 43.008 824.99 43.872 827.678 44.928C830.462 45.984 832.622 47.376 834.158 49.104C835.694 50.736 837.182 52.704 838.622 55.008C841.214 59.136 842.51 65.04 842.51 72.72C842.51 80.304 841.214 86.736 838.622 92.016C836.126 97.2 832.766 101.136 828.542 103.824C839.582 121.2 845.102 132.24 845.102 136.944C845.102 141.648 835.646 144 816.734 144C811.262 144 807.47 143.76 805.358 143.28C803.246 142.8 801.902 141.744 801.326 140.112L791.966 110.448L789.518 110.304V139.824ZM789.518 88.128H793.262C798.83 88.128 801.614 83.808 801.614 75.168C801.614 70.752 800.846 67.632 799.31 65.808C797.87 63.984 796.19 63.072 794.27 63.072H789.518V88.128Z" fill="white"/>
</svg>
